<svg width="249" height="211" viewBox="0 0 249 211" fill="none" xmlns="http://www.w3.org/2000/svg">
<g filter="url(#filter0_d_479_23414)">
<g opacity="0.6" filter="url(#filter1_f_479_23414)">
<path d="M41.009 152.259V122.361H107.588V152.259H41.009Z" fill="#EEEEEE" stroke="#A892C5"/>
<path d="M29.281 152.259V76.3517H150.765V152.259H89.0766C89.086 152.031 89.0915 151.8 89.0915 151.568C89.0915 140.982 80.4774 132.404 69.8551 132.404C59.2328 132.404 50.6187 140.982 50.6187 151.568C50.6187 151.8 50.6243 152.031 50.6336 152.259H29.281Z" fill="#6D41A2" stroke="#A892C5"/>
<path d="M145.496 152.259V122.361H212.075V152.259H145.496Z" fill="#EEEEEE" stroke="#A892C5"/>
<path d="M200.194 112.489L200.286 112.757L200.562 112.815L215.19 115.925C215.198 115.928 215.206 115.931 215.216 115.935C215.254 115.95 215.313 115.973 215.388 116.006C215.54 116.071 215.76 116.172 216.027 116.314C216.56 116.597 217.274 117.039 217.99 117.671C219.418 118.93 220.852 120.935 220.925 123.97V147.88H208.992C206.423 140.507 199.393 135.213 191.118 135.213C181.281 135.213 173.201 142.695 172.289 152.26H142.338V76.4109H187.782L200.194 112.489Z" fill="#6D41A2" stroke="#A892C5"/>
<path d="M159.265 83.9568H182.328L190.53 107.799H159.265V83.9568Z" fill="#A8E0FB" stroke="#A892C5"/>
<path d="M172.857 117.6C173.582 117.6 174.074 118.115 174.074 118.639C174.074 119.163 173.582 119.679 172.857 119.679C172.857 119.679 172.857 119.679 172.857 119.679H166.594C165.868 119.679 165.376 119.164 165.376 118.639C165.376 118.115 165.868 117.6 166.594 117.6H172.857Z" fill="white" stroke="#A892C5"/>
<path d="M183.03 71.7518C184.502 72.487 186.175 73.6543 187.338 75.4533H29.281V70.6771H180.074C180.077 70.6778 180.08 70.6784 180.083 70.6791C180.121 70.6873 180.179 70.7003 180.254 70.7186C180.405 70.7552 180.625 70.8131 180.898 70.8972C181.446 71.0657 182.201 71.338 183.03 71.7518Z" fill="#6D41A2" stroke="#A892C5"/>
<path d="M85.5914 154.003C85.5914 162.658 78.548 169.677 69.8554 169.677C61.1628 169.677 54.1194 162.658 54.1194 154.003C54.1194 145.349 61.1628 138.33 69.8554 138.33C78.548 138.33 85.5914 145.349 85.5914 154.003Z" fill="#EEEEEE" stroke="#414141"/>
<path d="M47.8816 154.004C47.8816 141.917 57.7178 132.116 69.8556 132.116C81.9934 132.116 91.8296 141.918 91.8296 154.004C91.8296 154.235 91.8257 154.465 91.8183 154.694H89.0771C89.0865 154.466 89.092 154.236 89.092 154.004C89.092 143.418 80.4775 134.839 69.8556 134.839C59.2333 134.839 50.6192 143.418 50.6192 154.004C50.6192 154.236 50.6248 154.466 50.6341 154.694H47.8929C47.8855 154.465 47.8816 154.235 47.8816 154.004Z" fill="#6D41A2" stroke="#A892C5"/>
<path d="M80.2206 154.003C80.2206 159.703 75.5815 164.327 69.8549 164.327C64.1283 164.327 59.4893 159.703 59.4893 154.003C59.4893 148.303 64.1283 143.679 69.8549 143.679C75.5815 143.679 80.2206 148.303 80.2206 154.003Z" fill="white" stroke="#A892C5"/>
<path d="M78.9035 154.004C78.9035 158.979 74.8542 163.016 69.8552 163.016C64.8561 163.016 60.8069 158.979 60.8069 154.004C60.8069 149.029 64.8561 144.993 69.8552 144.993C74.8542 144.993 78.9035 149.029 78.9035 154.004Z" fill="#E9E8ED" stroke="#A892C5"/>
<path d="M75.2561 154.004C75.2561 156.973 72.84 159.382 69.8555 159.382C66.871 159.382 64.4548 156.973 64.4548 154.004C64.4548 151.036 66.871 148.626 69.8555 148.626C72.84 148.626 75.2561 151.036 75.2561 154.004Z" fill="#312E37" stroke="#A892C5"/>
<path d="M70.1914 146.636C70.1914 146.818 70.0428 146.969 69.8554 146.969C69.6681 146.969 69.5195 146.818 69.5195 146.636C69.5195 146.454 69.6681 146.303 69.8554 146.303C70.0428 146.303 70.1914 146.454 70.1914 146.636Z" fill="#5C5963" stroke="#A892C5"/>
<path d="M70.1914 161.373C70.1914 161.555 70.0428 161.706 69.8554 161.706C69.6681 161.706 69.5195 161.555 69.5195 161.373C69.5195 161.191 69.6681 161.04 69.8554 161.04C70.0428 161.04 70.1914 161.191 70.1914 161.373Z" fill="#5C5963" stroke="#A892C5"/>
<path d="M65.9887 147.335C66.1502 147.242 66.3565 147.298 66.4487 147.457C66.54 147.615 66.4869 147.818 66.3259 147.911C66.1639 148.004 65.958 147.947 65.8659 147.788C65.7744 147.63 65.8282 147.427 65.9887 147.335Z" fill="#5C5963" stroke="#A892C5"/>
<path d="M73.7229 160.673L73.7227 160.673C73.5613 160.766 73.355 160.71 73.2628 160.551C73.1711 160.393 73.2249 160.19 73.3854 160.097C73.5469 160.004 73.7531 160.06 73.8454 160.219C73.9372 160.378 73.8833 160.581 73.7229 160.673Z" fill="#5C5963" stroke="#A892C5"/>
<path d="M63.1585 150.154L63.1586 150.154C63.2506 149.995 63.4567 149.939 63.6186 150.032C63.7791 150.124 63.8329 150.327 63.7412 150.486C63.6492 150.644 63.4434 150.701 63.281 150.607C63.1206 150.515 63.0669 150.312 63.1585 150.154Z" fill="#5C5963" stroke="#A892C5"/>
<path d="M75.9704 157.522L75.9703 157.522C75.8786 157.68 75.9323 157.883 76.0928 157.976L76.093 157.976C76.2548 158.069 76.4609 158.013 76.553 157.854L76.5531 157.854C76.6445 157.696 76.5913 157.493 76.4303 157.4L75.9704 157.522ZM75.9704 157.522C76.0624 157.363 76.2684 157.307 76.4302 157.4L75.9704 157.522Z" fill="#5C5963" stroke="#A892C5"/>
<path d="M62.7949 154.003C62.7949 154.185 62.6463 154.336 62.459 154.336C62.2716 154.336 62.123 154.185 62.123 154.003C62.123 153.821 62.2716 153.67 62.459 153.67C62.6463 153.67 62.7949 153.821 62.7949 154.003Z" fill="#5C5963" stroke="#A892C5"/>
<path d="M77.5886 154.003C77.5886 154.185 77.44 154.335 77.2527 154.335C77.0653 154.335 76.9167 154.185 76.9167 154.003C76.9167 153.821 77.0653 153.67 77.2527 153.67C77.44 153.67 77.5886 153.821 77.5886 154.003Z" fill="#5C5963" stroke="#A892C5"/>
<path d="M63.1585 157.854L63.1584 157.854C63.067 157.696 63.1206 157.492 63.2811 157.4C63.4426 157.307 63.6489 157.363 63.7411 157.522C63.8328 157.68 63.779 157.883 63.6185 157.976C63.4567 158.069 63.2506 158.013 63.1585 157.854Z" fill="#5C5963" stroke="#A892C5"/>
<path d="M76.0929 150.032L76.093 150.032C76.2549 149.939 76.4607 149.995 76.5529 150.154C76.6445 150.312 76.5908 150.515 76.4302 150.608C76.2687 150.7 76.0624 150.644 75.9702 150.485C75.8787 150.327 75.9324 150.124 76.0929 150.032Z" fill="#5C5963" stroke="#A892C5"/>
<path d="M66.4488 160.551L66.4487 160.551C66.3567 160.71 66.1509 160.766 65.9886 160.673C65.8282 160.581 65.7743 160.378 65.866 160.219C65.9582 160.06 66.1642 160.004 66.3263 160.097C66.4868 160.19 66.5404 160.393 66.4488 160.551Z" fill="#5C5963" stroke="#A892C5"/>
<path d="M73.3853 147.911L73.3855 147.911C73.5473 148.004 73.7534 147.948 73.8454 147.789L73.8456 147.789C73.9372 147.631 73.8835 147.428 73.723 147.335L73.7225 147.335C73.5615 147.242 73.3555 147.298 73.2627 147.458L73.3853 147.911ZM73.3853 147.911C73.2248 147.819 73.1712 147.616 73.2627 147.458L73.3853 147.911Z" fill="#5C5963" stroke="#A892C5"/>
<path d="M206.887 154.003C206.887 162.658 199.844 169.677 191.151 169.677C182.458 169.677 175.415 162.658 175.415 154.003C175.415 145.349 182.458 138.33 191.151 138.33C199.844 138.33 206.887 145.349 206.887 154.003Z" fill="#EEEEEE" stroke="#414141"/>
<path d="M169.047 154.004C169.047 141.846 178.942 131.987 191.151 131.987C201.204 131.987 209.688 138.673 212.37 147.821H208.992C206.423 140.449 199.393 135.155 191.118 135.155C180.671 135.155 172.199 143.592 172.199 154.004C172.199 154.236 172.204 154.466 172.214 154.694H169.058C169.051 154.465 169.047 154.235 169.047 154.004Z" fill="#6D41A2" stroke="#A892C5"/>
<path d="M201.517 154.003C201.517 159.703 196.878 164.327 191.151 164.327C185.424 164.327 180.785 159.703 180.785 154.003C180.785 148.303 185.424 143.679 191.151 143.679C196.878 143.679 201.517 148.303 201.517 154.003Z" fill="#5C5963" stroke="#A892C5"/>
<path d="M200.2 154.004C200.2 158.979 196.15 163.016 191.151 163.016C186.152 163.016 182.103 158.979 182.103 154.004C182.103 149.029 186.152 144.993 191.151 144.993C196.15 144.993 200.2 149.029 200.2 154.004Z" fill="#E9E8ED" stroke="#A892C5"/>
<path d="M196.552 154.004C196.552 156.973 194.136 159.382 191.151 159.382C188.167 159.382 185.75 156.973 185.75 154.004C185.75 151.036 188.167 148.626 191.151 148.626C194.136 148.626 196.552 151.036 196.552 154.004Z" fill="#312E37" stroke="#A892C5"/>
<path d="M191.486 146.636C191.486 146.818 191.338 146.969 191.15 146.969C190.963 146.969 190.814 146.818 190.814 146.636C190.814 146.454 190.963 146.303 191.15 146.303C191.338 146.303 191.486 146.454 191.486 146.636Z" fill="#5C5963" stroke="#A892C5"/>
<path d="M191.486 161.373C191.486 161.555 191.338 161.706 191.15 161.706C190.963 161.706 190.814 161.555 190.814 161.373C190.814 161.191 190.963 161.04 191.15 161.04C191.338 161.04 191.486 161.191 191.486 161.373Z" fill="#5C5963" stroke="#A892C5"/>
<path d="M187.283 147.335C187.445 147.242 187.651 147.298 187.743 147.457C187.835 147.615 187.782 147.818 187.621 147.911C187.459 148.004 187.253 147.947 187.161 147.789C187.069 147.63 187.123 147.427 187.283 147.335Z" fill="#5C5963" stroke="#A892C5"/>
<path d="M194.681 160.097C194.842 160.004 195.048 160.06 195.141 160.219C195.232 160.378 195.178 160.58 195.018 160.673C194.856 160.766 194.65 160.71 194.558 160.551C194.466 160.392 194.52 160.19 194.681 160.097Z" fill="#5C5963" stroke="#A892C5"/>
<path d="M184.913 150.032L184.913 150.032C185.073 150.124 185.127 150.327 185.035 150.486C184.943 150.645 184.737 150.701 184.575 150.608L184.575 150.607C184.414 150.515 184.361 150.312 184.452 150.154L184.453 150.154C184.545 149.995 184.751 149.939 184.913 150.032Z" fill="#5C5963" stroke="#A892C5"/>
<path d="M197.265 157.522L197.265 157.522C197.357 157.363 197.563 157.307 197.725 157.4C197.886 157.493 197.939 157.696 197.848 157.854L197.848 157.854C197.756 158.013 197.549 158.069 197.388 157.976L197.387 157.976C197.227 157.883 197.173 157.68 197.265 157.522Z" fill="#5C5963" stroke="#A892C5"/>
<path d="M184.054 153.865C184.124 154.033 184.045 154.229 183.873 154.301C183.7 154.372 183.505 154.291 183.434 154.122C183.364 153.953 183.443 153.758 183.615 153.686C183.788 153.615 183.983 153.696 184.054 153.865Z" fill="#5C5963" stroke="#A892C5"/>
<path d="M198.883 154.004C198.883 154.186 198.734 154.337 198.547 154.337C198.36 154.337 198.211 154.186 198.211 154.004C198.211 153.822 198.36 153.671 198.547 153.671C198.734 153.671 198.883 153.822 198.883 154.004Z" fill="#5C5963" stroke="#A892C5"/>
<path d="M184.453 157.854L184.453 157.854C184.361 157.696 184.415 157.492 184.576 157.4C184.737 157.307 184.943 157.363 185.036 157.522C185.127 157.681 185.074 157.883 184.913 157.976L184.913 157.976C184.751 158.069 184.545 158.013 184.453 157.854Z" fill="#5C5963" stroke="#A892C5"/>
<path d="M197.387 150.032L197.387 150.032C197.549 149.939 197.755 149.995 197.847 150.154C197.939 150.312 197.885 150.515 197.725 150.607C197.563 150.7 197.357 150.644 197.265 150.486C197.173 150.327 197.227 150.124 197.387 150.032Z" fill="#5C5963" stroke="#A892C5"/>
<path d="M187.743 160.551L187.743 160.551C187.651 160.71 187.446 160.766 187.283 160.673C187.123 160.581 187.069 160.378 187.161 160.219C187.253 160.06 187.459 160.004 187.621 160.097C187.781 160.19 187.835 160.393 187.743 160.551Z" fill="#5C5963" stroke="#A892C5"/>
<path d="M194.558 147.458L194.558 147.457C194.65 147.298 194.856 147.242 195.018 147.335L195.018 147.335C195.179 147.428 195.232 147.631 195.141 147.789L195.141 147.789C195.049 147.948 194.842 148.004 194.681 147.911L194.68 147.911C194.52 147.819 194.466 147.616 194.558 147.458Z" fill="#5C5963" stroke="#A892C5"/>
<path d="M148.365 152.802V74.3137" stroke="#A892C5" stroke-width="2.8347" stroke-miterlimit="10"/>
<path d="M28.7864 127.976H148.589" stroke="#A892C5" stroke-width="2.8347" stroke-miterlimit="10"/>
<path d="M190.53 107.798H159.94L182.478 84.3925L190.53 107.798Z" fill="#EEEEEE" stroke="#A892C5"/>
<path d="M181.509 83.9568L159.265 107.058V83.9568H181.509Z" fill="#EEEEEE" stroke="#A892C5"/>
<path d="M49.4519 148.759V148.759L49.4523 151.693C49.4523 151.693 49.4523 151.693 49.4523 151.693C49.4523 151.949 49.212 152.229 48.8218 152.229H27.3432C26.9529 152.229 26.7126 151.949 26.7126 151.693V148.759C26.7126 148.503 26.9529 148.223 27.3432 148.223H48.8214C49.2116 148.223 49.4519 148.503 49.4519 148.759Z" fill="#6D41A2" stroke="#A892C5"/>
<path d="M93.9154 148.223H170.389V152.229H93.9154C92.8845 152.229 91.969 152.116 91.3266 151.943C91.0017 151.855 90.7749 151.76 90.6411 151.675C90.6074 151.653 90.5849 151.636 90.5703 151.624V148.828C90.5849 148.816 90.6074 148.799 90.6411 148.777C90.7749 148.692 91.0017 148.597 91.3266 148.509C91.969 148.336 92.8845 148.223 93.9154 148.223ZM90.5465 151.599C90.5466 151.599 90.548 151.601 90.5501 151.604C90.5473 151.601 90.5463 151.599 90.5465 151.599ZM90.5465 148.853C90.5463 148.853 90.5473 148.851 90.5501 148.848C90.548 148.851 90.5466 148.853 90.5465 148.853Z" fill="#6D41A2" stroke="#A892C5"/>
<path d="M25.5 144.375V136.054H28.5286V144.375H25.5Z" fill="#6D41A2" stroke="#A892C5"/>
<path d="M222.801 143.475C222.943 143.475 223.107 143.549 223.251 143.739C223.396 143.929 223.5 144.213 223.5 144.547V147.823C223.5 148.158 223.396 148.442 223.251 148.632C223.107 148.822 222.943 148.896 222.801 148.896H209.813C209.672 148.896 209.508 148.822 209.363 148.632C209.218 148.442 209.115 148.158 209.115 147.823V144.547C209.115 144.213 209.218 143.929 209.363 143.739C209.508 143.549 209.672 143.475 209.813 143.475H222.801Z" fill="#6D41A2" stroke="#A892C5"/>
</g>
<path d="M41.009 152.259V122.361H107.588V152.259H41.009Z" fill="#EEEEEE" stroke="#A892C5"/>
<path d="M29.281 152.259V76.3517H150.765V152.259H89.0766C89.086 152.031 89.0915 151.8 89.0915 151.568C89.0915 140.982 80.4774 132.404 69.8551 132.404C59.2328 132.404 50.6187 140.982 50.6187 151.568C50.6187 151.8 50.6243 152.031 50.6336 152.259H29.281Z" fill="#6D41A2" stroke="#A892C5"/>
<path d="M145.496 152.259V122.361H212.075V152.259H145.496Z" fill="#EEEEEE" stroke="#A892C5"/>
<path d="M200.194 112.489L200.286 112.757L200.562 112.815L215.19 115.925C215.198 115.928 215.206 115.931 215.216 115.935C215.254 115.95 215.313 115.973 215.388 116.006C215.54 116.071 215.76 116.172 216.027 116.314C216.56 116.597 217.274 117.039 217.99 117.671C219.418 118.93 220.852 120.935 220.925 123.97V147.88H208.992C206.423 140.507 199.393 135.213 191.118 135.213C181.281 135.213 173.201 142.695 172.289 152.26H142.338V76.4109H187.782L200.194 112.489Z" fill="#6D41A2" stroke="#A892C5"/>
<path d="M159.265 83.9568H182.328L190.53 107.799H159.265V83.9568Z" fill="#A8E0FB" stroke="#A892C5"/>
<path d="M172.857 117.6C173.582 117.6 174.074 118.115 174.074 118.639C174.074 119.163 173.582 119.679 172.857 119.679C172.857 119.679 172.857 119.679 172.857 119.679H166.594C165.868 119.679 165.376 119.164 165.376 118.639C165.376 118.115 165.868 117.6 166.594 117.6H172.857Z" fill="white" stroke="#A892C5"/>
<path d="M183.03 71.7518C184.502 72.487 186.175 73.6543 187.338 75.4533H29.281V70.6771H180.074C180.077 70.6778 180.08 70.6784 180.083 70.6791C180.121 70.6873 180.179 70.7003 180.254 70.7186C180.405 70.7552 180.625 70.8131 180.898 70.8972C181.446 71.0657 182.201 71.338 183.03 71.7518Z" fill="#6D41A2" stroke="#A892C5"/>
<path d="M85.5914 154.003C85.5914 162.658 78.548 169.677 69.8554 169.677C61.1628 169.677 54.1194 162.658 54.1194 154.003C54.1194 145.349 61.1628 138.33 69.8554 138.33C78.548 138.33 85.5914 145.349 85.5914 154.003Z" fill="#EEEEEE" stroke="#414141"/>
<path d="M47.8816 154.004C47.8816 141.917 57.7178 132.116 69.8556 132.116C81.9934 132.116 91.8296 141.918 91.8296 154.004C91.8296 154.235 91.8257 154.465 91.8183 154.694H89.0771C89.0865 154.466 89.092 154.236 89.092 154.004C89.092 143.418 80.4775 134.839 69.8556 134.839C59.2333 134.839 50.6192 143.418 50.6192 154.004C50.6192 154.236 50.6248 154.466 50.6341 154.694H47.8929C47.8855 154.465 47.8816 154.235 47.8816 154.004Z" fill="#6D41A2" stroke="#A892C5"/>
<path d="M80.2206 154.003C80.2206 159.703 75.5815 164.327 69.8549 164.327C64.1283 164.327 59.4893 159.703 59.4893 154.003C59.4893 148.303 64.1283 143.679 69.8549 143.679C75.5815 143.679 80.2206 148.303 80.2206 154.003Z" fill="white" stroke="#A892C5"/>
<path d="M78.9035 154.004C78.9035 158.979 74.8542 163.016 69.8552 163.016C64.8561 163.016 60.8069 158.979 60.8069 154.004C60.8069 149.029 64.8561 144.993 69.8552 144.993C74.8542 144.993 78.9035 149.029 78.9035 154.004Z" fill="#E9E8ED" stroke="#A892C5"/>
<path d="M75.2561 154.004C75.2561 156.973 72.84 159.382 69.8555 159.382C66.871 159.382 64.4548 156.973 64.4548 154.004C64.4548 151.036 66.871 148.626 69.8555 148.626C72.84 148.626 75.2561 151.036 75.2561 154.004Z" fill="#312E37" stroke="#A892C5"/>
<path d="M70.1914 146.636C70.1914 146.818 70.0428 146.969 69.8554 146.969C69.6681 146.969 69.5195 146.818 69.5195 146.636C69.5195 146.454 69.6681 146.303 69.8554 146.303C70.0428 146.303 70.1914 146.454 70.1914 146.636Z" fill="#5C5963" stroke="#A892C5"/>
<path d="M70.1914 161.373C70.1914 161.555 70.0428 161.706 69.8554 161.706C69.6681 161.706 69.5195 161.555 69.5195 161.373C69.5195 161.191 69.6681 161.04 69.8554 161.04C70.0428 161.04 70.1914 161.191 70.1914 161.373Z" fill="#5C5963" stroke="#A892C5"/>
<path d="M65.9887 147.335C66.1502 147.242 66.3565 147.298 66.4487 147.457C66.54 147.615 66.4869 147.818 66.3259 147.911C66.1639 148.004 65.958 147.947 65.8659 147.788C65.7744 147.63 65.8282 147.427 65.9887 147.335Z" fill="#5C5963" stroke="#A892C5"/>
<path d="M73.7229 160.673L73.7227 160.673C73.5613 160.766 73.355 160.71 73.2628 160.551C73.1711 160.393 73.2249 160.19 73.3854 160.097C73.5469 160.004 73.7531 160.06 73.8454 160.219C73.9372 160.378 73.8833 160.581 73.7229 160.673Z" fill="#5C5963" stroke="#A892C5"/>
<path d="M63.1585 150.154L63.1586 150.154C63.2506 149.995 63.4567 149.939 63.6186 150.032C63.7791 150.124 63.8329 150.327 63.7412 150.486C63.6492 150.644 63.4434 150.701 63.281 150.607C63.1206 150.515 63.0669 150.312 63.1585 150.154Z" fill="#5C5963" stroke="#A892C5"/>
<path d="M75.9704 157.522L75.9703 157.522C75.8786 157.68 75.9323 157.883 76.0928 157.976L76.093 157.976C76.2548 158.069 76.4609 158.013 76.553 157.854L76.5531 157.854C76.6445 157.696 76.5913 157.493 76.4303 157.4L75.9704 157.522ZM75.9704 157.522C76.0624 157.363 76.2684 157.307 76.4302 157.4L75.9704 157.522Z" fill="#5C5963" stroke="#A892C5"/>
<path d="M62.7949 154.003C62.7949 154.185 62.6463 154.336 62.459 154.336C62.2716 154.336 62.123 154.185 62.123 154.003C62.123 153.821 62.2716 153.67 62.459 153.67C62.6463 153.67 62.7949 153.821 62.7949 154.003Z" fill="#5C5963" stroke="#A892C5"/>
<path d="M77.5886 154.003C77.5886 154.185 77.44 154.335 77.2527 154.335C77.0653 154.335 76.9167 154.185 76.9167 154.003C76.9167 153.821 77.0653 153.67 77.2527 153.67C77.44 153.67 77.5886 153.821 77.5886 154.003Z" fill="#5C5963" stroke="#A892C5"/>
<path d="M63.1585 157.854L63.1584 157.854C63.067 157.696 63.1206 157.492 63.2811 157.4C63.4426 157.307 63.6489 157.363 63.7411 157.522C63.8328 157.68 63.779 157.883 63.6185 157.976C63.4567 158.069 63.2506 158.013 63.1585 157.854Z" fill="#5C5963" stroke="#A892C5"/>
<path d="M76.0929 150.032L76.093 150.032C76.2549 149.939 76.4607 149.995 76.5529 150.154C76.6445 150.312 76.5908 150.515 76.4302 150.608C76.2687 150.7 76.0624 150.644 75.9702 150.485C75.8787 150.327 75.9324 150.124 76.0929 150.032Z" fill="#5C5963" stroke="#A892C5"/>
<path d="M66.4488 160.551L66.4487 160.551C66.3567 160.71 66.1509 160.766 65.9886 160.673C65.8282 160.581 65.7743 160.378 65.866 160.219C65.9582 160.06 66.1642 160.004 66.3263 160.097C66.4868 160.19 66.5404 160.393 66.4488 160.551Z" fill="#5C5963" stroke="#A892C5"/>
<path d="M73.3853 147.911L73.3855 147.911C73.5473 148.004 73.7534 147.948 73.8454 147.789L73.8456 147.789C73.9372 147.631 73.8835 147.428 73.723 147.335L73.7225 147.335C73.5615 147.242 73.3555 147.298 73.2627 147.458L73.3853 147.911ZM73.3853 147.911C73.2248 147.819 73.1712 147.616 73.2627 147.458L73.3853 147.911Z" fill="#5C5963" stroke="#A892C5"/>
<path d="M206.887 154.003C206.887 162.658 199.844 169.677 191.151 169.677C182.458 169.677 175.415 162.658 175.415 154.003C175.415 145.349 182.458 138.33 191.151 138.33C199.844 138.33 206.887 145.349 206.887 154.003Z" fill="#EEEEEE" stroke="#414141"/>
<path d="M169.047 154.004C169.047 141.846 178.942 131.987 191.151 131.987C201.204 131.987 209.688 138.673 212.37 147.821H208.992C206.423 140.449 199.393 135.155 191.118 135.155C180.671 135.155 172.199 143.592 172.199 154.004C172.199 154.236 172.204 154.466 172.214 154.694H169.058C169.051 154.465 169.047 154.235 169.047 154.004Z" fill="#6D41A2" stroke="#A892C5"/>
<path d="M201.517 154.003C201.517 159.703 196.878 164.327 191.151 164.327C185.424 164.327 180.785 159.703 180.785 154.003C180.785 148.303 185.424 143.679 191.151 143.679C196.878 143.679 201.517 148.303 201.517 154.003Z" fill="#5C5963" stroke="#A892C5"/>
<path d="M200.2 154.004C200.2 158.979 196.15 163.016 191.151 163.016C186.152 163.016 182.103 158.979 182.103 154.004C182.103 149.029 186.152 144.993 191.151 144.993C196.15 144.993 200.2 149.029 200.2 154.004Z" fill="#E9E8ED" stroke="#A892C5"/>
<path d="M196.552 154.004C196.552 156.973 194.136 159.382 191.151 159.382C188.167 159.382 185.75 156.973 185.75 154.004C185.75 151.036 188.167 148.626 191.151 148.626C194.136 148.626 196.552 151.036 196.552 154.004Z" fill="#312E37" stroke="#A892C5"/>
<path d="M191.486 146.636C191.486 146.818 191.338 146.969 191.15 146.969C190.963 146.969 190.814 146.818 190.814 146.636C190.814 146.454 190.963 146.303 191.15 146.303C191.338 146.303 191.486 146.454 191.486 146.636Z" fill="#5C5963" stroke="#A892C5"/>
<path d="M191.486 161.373C191.486 161.555 191.338 161.706 191.15 161.706C190.963 161.706 190.814 161.555 190.814 161.373C190.814 161.191 190.963 161.04 191.15 161.04C191.338 161.04 191.486 161.191 191.486 161.373Z" fill="#5C5963" stroke="#A892C5"/>
<path d="M187.283 147.335C187.445 147.242 187.651 147.298 187.743 147.457C187.835 147.615 187.782 147.818 187.621 147.911C187.459 148.004 187.253 147.947 187.161 147.789C187.069 147.63 187.123 147.427 187.283 147.335Z" fill="#5C5963" stroke="#A892C5"/>
<path d="M194.681 160.097C194.842 160.004 195.048 160.06 195.141 160.219C195.232 160.378 195.178 160.58 195.018 160.673C194.856 160.766 194.65 160.71 194.558 160.551C194.466 160.392 194.52 160.19 194.681 160.097Z" fill="#5C5963" stroke="#A892C5"/>
<path d="M184.913 150.032L184.913 150.032C185.073 150.124 185.127 150.327 185.035 150.486C184.943 150.645 184.737 150.701 184.575 150.608L184.575 150.607C184.414 150.515 184.361 150.312 184.452 150.154L184.453 150.154C184.545 149.995 184.751 149.939 184.913 150.032Z" fill="#5C5963" stroke="#A892C5"/>
<path d="M197.265 157.522L197.265 157.522C197.357 157.363 197.563 157.307 197.725 157.4C197.886 157.493 197.939 157.696 197.848 157.854L197.848 157.854C197.756 158.013 197.549 158.069 197.388 157.976L197.387 157.976C197.227 157.883 197.173 157.68 197.265 157.522Z" fill="#5C5963" stroke="#A892C5"/>
<path d="M184.054 153.865C184.124 154.033 184.045 154.229 183.873 154.301C183.7 154.372 183.505 154.291 183.434 154.122C183.364 153.953 183.443 153.758 183.615 153.686C183.788 153.615 183.983 153.696 184.054 153.865Z" fill="#5C5963" stroke="#A892C5"/>
<path d="M198.883 154.004C198.883 154.186 198.734 154.337 198.547 154.337C198.36 154.337 198.211 154.186 198.211 154.004C198.211 153.822 198.36 153.671 198.547 153.671C198.734 153.671 198.883 153.822 198.883 154.004Z" fill="#5C5963" stroke="#A892C5"/>
<path d="M184.453 157.854L184.453 157.854C184.361 157.696 184.415 157.492 184.576 157.4C184.737 157.307 184.943 157.363 185.036 157.522C185.127 157.681 185.074 157.883 184.913 157.976L184.913 157.976C184.751 158.069 184.545 158.013 184.453 157.854Z" fill="#5C5963" stroke="#A892C5"/>
<path d="M197.387 150.032L197.387 150.032C197.549 149.939 197.755 149.995 197.847 150.154C197.939 150.312 197.885 150.515 197.725 150.607C197.563 150.7 197.357 150.644 197.265 150.486C197.173 150.327 197.227 150.124 197.387 150.032Z" fill="#5C5963" stroke="#A892C5"/>
<path d="M187.743 160.551L187.743 160.551C187.651 160.71 187.446 160.766 187.283 160.673C187.123 160.581 187.069 160.378 187.161 160.219C187.253 160.06 187.459 160.004 187.621 160.097C187.781 160.19 187.835 160.393 187.743 160.551Z" fill="#5C5963" stroke="#A892C5"/>
<path d="M194.558 147.458L194.558 147.457C194.65 147.298 194.856 147.242 195.018 147.335L195.018 147.335C195.179 147.428 195.232 147.631 195.141 147.789L195.141 147.789C195.049 147.948 194.842 148.004 194.681 147.911L194.68 147.911C194.52 147.819 194.466 147.616 194.558 147.458Z" fill="#5C5963" stroke="#A892C5"/>
<path d="M148.365 152.802V74.3137" stroke="#A892C5" stroke-width="2.8347" stroke-miterlimit="10"/>
<path d="M28.7864 127.976H148.589" stroke="#A892C5" stroke-width="2.8347" stroke-miterlimit="10"/>
<path d="M190.53 107.798H159.94L182.478 84.3925L190.53 107.798Z" fill="#EEEEEE" stroke="#A892C5"/>
<path d="M181.509 83.9568L159.265 107.058V83.9568H181.509Z" fill="#EEEEEE" stroke="#A892C5"/>
<path d="M49.4519 148.759V148.759L49.4523 151.693C49.4523 151.693 49.4523 151.693 49.4523 151.693C49.4523 151.949 49.212 152.229 48.8218 152.229H27.3432C26.9529 152.229 26.7126 151.949 26.7126 151.693V148.759C26.7126 148.503 26.9529 148.223 27.3432 148.223H48.8214C49.2116 148.223 49.4519 148.503 49.4519 148.759Z" fill="#6D41A2" stroke="#A892C5"/>
<path d="M93.9154 148.223H170.389V152.229H93.9154C92.8845 152.229 91.969 152.116 91.3266 151.943C91.0017 151.855 90.7749 151.76 90.6411 151.675C90.6074 151.653 90.5849 151.636 90.5703 151.624V148.828C90.5849 148.816 90.6074 148.799 90.6411 148.777C90.7749 148.692 91.0017 148.597 91.3266 148.509C91.969 148.336 92.8845 148.223 93.9154 148.223ZM90.5465 151.599C90.5466 151.599 90.548 151.601 90.5501 151.604C90.5473 151.601 90.5463 151.599 90.5465 151.599ZM90.5465 148.853C90.5463 148.853 90.5473 148.851 90.5501 148.848C90.548 148.851 90.5466 148.853 90.5465 148.853Z" fill="#6D41A2" stroke="#A892C5"/>
<path d="M25.5 144.375V136.054H28.5286V144.375H25.5Z" fill="#6D41A2" stroke="#A892C5"/>
<path d="M222.801 143.475C222.943 143.475 223.107 143.549 223.251 143.739C223.396 143.929 223.5 144.213 223.5 144.547V147.823C223.5 148.158 223.396 148.442 223.251 148.632C223.107 148.822 222.943 148.896 222.801 148.896H209.813C209.672 148.896 209.508 148.822 209.363 148.632C209.218 148.442 209.115 148.158 209.115 147.823V144.547C209.115 144.213 209.218 143.929 209.363 143.739C209.508 143.549 209.672 143.475 209.813 143.475H222.801Z" fill="#6D41A2" stroke="#A892C5"/>
</g>
<defs>
<filter id="filter0_d_479_23414" x="0" y="60.1771" width="249" height="150" filterUnits="userSpaceOnUse" color-interpolation-filters="sRGB">
<feFlood flood-opacity="0" result="BackgroundImageFix"/>
<feColorMatrix in="SourceAlpha" type="matrix" values="0 0 0 0 0 0 0 0 0 0 0 0 0 0 0 0 0 0 127 0" result="hardAlpha"/>
<feOffset dy="15"/>
<feGaussianBlur stdDeviation="12.5"/>
<feComposite in2="hardAlpha" operator="out"/>
<feColorMatrix type="matrix" values="0 0 0 0 0 0 0 0 0 0 0 0 0 0 0 0 0 0 0.1 0"/>
<feBlend mode="normal" in2="BackgroundImageFix" result="effect1_dropShadow_479_23414"/>
<feBlend mode="normal" in="SourceGraphic" in2="effect1_dropShadow_479_23414" result="shape"/>
</filter>
<filter id="filter1_f_479_23414" x="16" y="61.1771" width="217" height="118" filterUnits="userSpaceOnUse" color-interpolation-filters="sRGB">
<feFlood flood-opacity="0" result="BackgroundImageFix"/>
<feBlend mode="normal" in="SourceGraphic" in2="BackgroundImageFix" result="shape"/>
<feGaussianBlur stdDeviation="4.5" result="effect1_foregroundBlur_479_23414"/>
</filter>
</defs>
</svg>
