<svg width="57" height="57" viewBox="0 0 57 57" fill="none" xmlns="http://www.w3.org/2000/svg">
<rect width="57" height="57" rx="16" fill="#6D41A2"/>
<path d="M22.7912 46.6529C19.8969 46.6529 17.5511 44.3044 17.5511 41.4079V29.7712C20.4454 29.7712 22.7912 32.1198 22.7912 35.0162V46.6529Z" fill="white"/>
<path d="M40.5234 45.9832C35.4072 48.0275 34.7821 46.0106 33.5869 43.3727L28.7852 32.7749C31.4211 31.5784 34.5266 32.7475 35.7217 35.3854L40.5234 45.9832Z" fill="white"/>
<path d="M38.7328 19.9891C38.7328 26.1407 33.7506 31.1276 27.6047 31.1276C21.4588 31.1276 16.4766 26.1407 16.4766 19.9891C16.4766 13.8375 21.4588 8.85059 27.6047 8.85059C33.7506 8.85059 38.7328 13.8375 38.7328 19.9891ZM21.5819 19.9891C21.5819 23.3185 24.2784 26.0175 27.6047 26.0175C30.931 26.0175 33.6275 23.3185 33.6275 19.9891C33.6275 16.6597 30.931 13.9606 27.6047 13.9606C24.2784 13.9606 21.5819 16.6597 21.5819 19.9891Z" fill="white"/>
<path fill-rule="evenodd" clip-rule="evenodd" d="M27.3322 23.8189C26.5005 22.8018 24.6628 20.4058 24.6628 19.0928C24.6628 17.3958 26.0372 16.0201 27.7326 16.0201C29.428 16.0201 30.8024 17.3958 30.8024 19.0928C30.8024 20.4058 28.9647 22.8018 28.133 23.8189C27.9261 24.072 27.5392 24.072 27.3322 23.8189ZM26.0205 19.0928C26.0205 20.0393 26.787 20.8065 27.7326 20.8065C28.6781 20.8065 29.4446 20.0393 29.4446 19.0928C29.4446 18.1464 28.6781 17.3792 27.7326 17.3792C26.787 17.3792 26.0205 18.1464 26.0205 19.0928Z" fill="white"/>
</svg>
